<svg width="50" height="48" viewBox="0 0 50 48" fill="none" xmlns="http://www.w3.org/2000/svg">
<path d="M48.2686 17.3209V39.5343C48.2686 43.4333 45.1078 46.594 41.2089 46.594H20.1939C16.295 46.594 13.1342 43.4333 13.1342 39.5343V8.47164C13.1342 4.57267 16.295 1.41194 20.1939 1.41194H32.3596V7.43731C32.3596 12.8959 36.7846 17.3209 42.2432 17.3209H48.2686ZM46.2718 14.497H42.2432C38.3442 14.497 35.1835 11.3363 35.1835 7.43731V3.40872L46.2718 14.497Z" fill="#EEF1F7" stroke="#CBD0DC" stroke-width="2.82388"/>
<rect y="21.2119" width="33.4925" height="19.5373" rx="4.94179" fill="#EA4A4D"/>
<path d="M5 35.3373V26H8.32824C9.05468 26 9.6565 26.1322 10.1337 26.3967C10.6109 26.6611 10.968 27.0228 11.2051 27.4818C11.4422 27.9377 11.5607 28.4513 11.5607 29.0228C11.5607 29.5972 11.4407 30.1139 11.2006 30.5729C10.9635 31.0288 10.6048 31.3905 10.1246 31.658C9.64738 31.9224 9.04708 32.0547 8.32368 32.0547H6.03495V30.8601H8.19602C8.65499 30.8601 9.02732 30.7811 9.31304 30.6231C9.59875 30.462 9.80847 30.2431 9.94221 29.9665C10.0759 29.6899 10.1428 29.3754 10.1428 29.0228C10.1428 28.6702 10.0759 28.3571 9.94221 28.0836C9.80847 27.81 9.59723 27.5957 9.30848 27.4407C9.02277 27.2857 8.64587 27.2082 8.17779 27.2082H6.4088V35.3373H5Z" fill="white"/>
<path d="M16.2351 35.3373H13.2123V26H16.3308C17.2457 26 18.0314 26.1869 18.688 26.5608C19.3445 26.9316 19.8475 27.465 20.1971 28.1611C20.5497 28.8541 20.7259 29.6854 20.7259 30.655C20.7259 31.6276 20.5481 32.4635 20.1925 33.1626C19.8399 33.8616 19.3293 34.3996 18.6606 34.7765C17.9919 35.1504 17.1834 35.3373 16.2351 35.3373ZM14.6211 34.1063H16.1576C16.8688 34.1063 17.46 33.9726 17.9311 33.7051C18.4023 33.4346 18.7548 33.044 18.9889 32.5334C19.2229 32.0197 19.3399 31.3936 19.3399 30.655C19.3399 29.9225 19.2229 29.3009 18.9889 28.7903C18.7579 28.2796 18.4129 27.8921 17.9539 27.6276C17.495 27.3632 16.9251 27.231 16.2442 27.231H14.6211V34.1063Z" fill="white"/>
<path d="M22.4778 35.3373V26H28.2681V27.2128H23.8866V30.0577H27.8532V31.2659H23.8866V35.3373H22.4778Z" fill="white"/>
</svg>
