<svg width="59" height="59" viewBox="0 0 59 59" fill="none" xmlns="http://www.w3.org/2000/svg">
<path d="M58.4744 29.2561C58.4744 37.0153 55.3941 44.4567 49.911 49.9432C44.428 55.4298 36.9914 58.5121 29.2372 58.5121C21.483 58.5121 14.0464 55.4298 8.56338 49.9432C3.08034 44.4567 0 37.0153 0 29.2561C0 21.4969 3.08034 14.0555 8.56338 8.56891C14.0464 3.08233 21.483 0 29.2372 0C36.9914 0 44.428 3.08233 49.911 8.56891C55.3941 14.0555 58.4744 21.4969 58.4744 29.2561ZM23.7552 18.285C22.3013 18.285 20.907 18.863 19.8789 19.8917C18.8508 20.9204 18.2733 22.3157 18.2733 23.7706V34.7416C18.2733 36.1964 18.8508 37.5917 19.8789 38.6204C20.907 39.6492 22.3013 40.2271 23.7552 40.2271H34.7192C36.1731 40.2271 37.5675 39.6492 38.5955 38.6204C39.6236 37.5917 40.2012 36.1964 40.2012 34.7416V23.7706C40.2012 22.3157 39.6236 20.9204 38.5955 19.8917C37.5675 18.863 36.1731 18.285 34.7192 18.285H23.7552Z" fill="#EA4A4D"/>
</svg>
