<svg width="60" height="59" viewBox="0 0 60 59" fill="none" xmlns="http://www.w3.org/2000/svg">
<ellipse cx="29.8622" cy="29.7444" rx="29.2372" ry="29.2561" fill="#E2E2E2"/>
<path fill-rule="evenodd" clip-rule="evenodd" d="M15.2432 24.9383C15.2432 23.9961 15.6145 23.0925 16.2754 22.4263C16.9363 21.76 17.8326 21.3857 18.7673 21.3857H31.9828C32.8375 21.3856 33.6632 21.6987 34.306 22.2666C34.9488 22.8346 35.365 23.6187 35.4769 24.4729L40.957 22.0181C41.2252 21.8976 41.519 21.8466 41.8118 21.8697C42.1046 21.8929 42.3869 21.9894 42.6333 22.1505C42.8796 22.3117 43.0821 22.5323 43.2223 22.7924C43.3625 23.0525 43.4361 23.3438 43.4362 23.6398V36.8943C43.4359 37.1901 43.3624 37.4811 43.2223 37.741C43.0821 38.0009 42.8799 38.2214 42.6338 38.3825C42.3877 38.5436 42.1056 38.6401 41.8131 38.6635C41.5205 38.6868 41.2269 38.6361 40.9587 38.516L35.4769 36.0612C35.365 36.9154 34.9488 37.6995 34.306 38.2675C33.6632 38.8354 32.8375 39.1485 31.9828 39.1484H18.7673C17.8326 39.1484 16.9363 38.7741 16.2754 38.1078C15.6145 37.4416 15.2432 36.538 15.2432 35.5958V24.9383Z" fill="white"/>
</svg>
