<svg width="49" height="50" viewBox="0 0 49 50" fill="none" xmlns="http://www.w3.org/2000/svg">
<circle cx="24.5" cy="25" r="24.5" fill="#CBD6FF"/>
<path d="M34.5 32.25C34.5 32.4489 34.421 32.6397 34.2803 32.7803C34.1397 32.921 33.9489 33 33.75 33H15.75C15.5511 33 15.3603 32.921 15.2197 32.7803C15.079 32.6397 15 32.4489 15 32.25V17.25C15 17.0511 15.079 16.8603 15.2197 16.7197C15.3603 16.579 15.5511 16.5 15.75 16.5C15.9489 16.5 16.1397 16.579 16.2803 16.7197C16.421 16.8603 16.5 17.0511 16.5 17.25V27.4397L21.2194 22.7194C21.289 22.6496 21.3717 22.5943 21.4628 22.5566C21.5538 22.5188 21.6514 22.4994 21.75 22.4994C21.8486 22.4994 21.9462 22.5188 22.0372 22.5566C22.1283 22.5943 22.211 22.6496 22.2806 22.7194L24.75 25.1897L29.6897 20.25H27.75C27.5511 20.25 27.3603 20.171 27.2197 20.0303C27.079 19.8897 27 19.6989 27 19.5C27 19.3011 27.079 19.1103 27.2197 18.9697C27.3603 18.829 27.5511 18.75 27.75 18.75H31.5C31.6989 18.75 31.8897 18.829 32.0303 18.9697C32.171 19.1103 32.25 19.3011 32.25 19.5V23.25C32.25 23.4489 32.171 23.6397 32.0303 23.7803C31.8897 23.921 31.6989 24 31.5 24C31.3011 24 31.1103 23.921 30.9697 23.7803C30.829 23.6397 30.75 23.4489 30.75 23.25V21.3103L25.2806 26.7806C25.211 26.8504 25.1283 26.9057 25.0372 26.9434C24.9462 26.9812 24.8486 27.0006 24.75 27.0006C24.6514 27.0006 24.5538 26.9812 24.4628 26.9434C24.3717 26.9057 24.289 26.8504 24.2194 26.7806L21.75 24.3103L16.5 29.5603V31.5H33.75C33.9489 31.5 34.1397 31.579 34.2803 31.7197C34.421 31.8603 34.5 32.0511 34.5 32.25Z" fill="#4B00B5"/>
</svg>
