<svg width="254" height="55" viewBox="0 0 254 55" fill="none" xmlns="http://www.w3.org/2000/svg">
<path d="M96.864 47.66C93.784 47.66 90.9827 46.9853 88.46 45.636C85.9667 44.2867 84.0013 42.4093 82.564 40.004C81.1267 37.5693 80.408 34.7827 80.408 31.644C80.408 28.5053 81.1267 25.7187 82.564 23.284C84.0013 20.8493 85.9667 18.9573 88.46 17.608C90.9827 16.2587 93.784 15.584 96.864 15.584C99.944 15.584 102.716 16.2587 105.18 17.608C107.673 18.9573 109.639 20.8493 111.076 23.284C112.513 25.7187 113.232 28.5053 113.232 31.644C113.232 34.7827 112.513 37.5693 111.076 40.004C109.639 42.4093 107.673 44.2867 105.18 45.636C102.716 46.9853 99.944 47.66 96.864 47.66ZM96.864 41.5C98.624 41.5 100.223 41.104 101.66 40.312C103.127 39.4907 104.285 38.3467 105.136 36.88C105.987 35.384 106.412 33.6387 106.412 31.644C106.412 29.6787 105.987 27.9627 105.136 26.496C104.315 25 103.171 23.856 101.704 23.064C100.267 22.2427 98.6533 21.832 96.864 21.832C95.0453 21.832 93.4027 22.2427 91.936 23.064C90.4987 23.856 89.3547 25 88.504 26.496C87.6533 27.9627 87.228 29.6787 87.228 31.644C87.228 33.6387 87.6533 35.384 88.504 36.88C89.3547 38.3467 90.5133 39.4907 91.98 40.312C93.4467 41.104 95.0747 41.5 96.864 41.5ZM116.909 25.88H123.333V28.476C124.301 27.3907 125.445 26.584 126.765 26.056C128.114 25.4987 129.522 25.22 130.989 25.22C133.864 25.22 136.005 25.9973 137.413 27.552C138.85 29.0773 139.569 31.1453 139.569 33.756V47H132.925V34.504C132.925 31.776 131.664 30.412 129.141 30.412C128.026 30.412 126.985 30.6907 126.017 31.248C125.049 31.776 124.228 32.568 123.553 33.624V47H116.909V25.88ZM143.099 25.88H149.743L153.615 39.08L157.399 25.88H162.943L166.771 39.08L170.599 25.88H177.243L170.247 47H164.219L160.171 33.888L156.123 47H150.095L143.099 25.88ZM186.445 47.66C183.864 47.66 181.752 47.0147 180.109 45.724C178.496 44.404 177.689 42.6147 177.689 40.356C177.689 38.0093 178.467 36.1907 180.021 34.9C181.576 33.58 183.776 32.92 186.621 32.92C187.883 32.92 189.085 33.052 190.229 33.316C191.373 33.58 192.385 33.9467 193.265 34.416V33.888C193.265 32.568 192.796 31.6 191.857 30.984C190.919 30.368 189.481 30.06 187.545 30.06C184.964 30.06 182.588 30.544 180.417 31.512V26.672C181.356 26.2613 182.573 25.924 184.069 25.66C185.565 25.3667 187.061 25.22 188.557 25.22C192.371 25.22 195.216 26.012 197.093 27.596C198.971 29.1507 199.909 31.336 199.909 34.152V47H193.661V45.064C191.872 46.7947 189.467 47.66 186.445 47.66ZM188.249 43.26C189.335 43.26 190.317 43.0547 191.197 42.644C192.077 42.2333 192.767 41.6613 193.265 40.928V38.816C191.769 37.8187 190.127 37.32 188.337 37.32C187.105 37.32 186.152 37.584 185.477 38.112C184.832 38.6107 184.509 39.3587 184.509 40.356C184.509 41.2947 184.832 42.0133 185.477 42.512C186.123 43.0107 187.047 43.26 188.249 43.26ZM204.308 25.88H210.732V28.916C211.582 27.8893 212.77 27.112 214.296 26.584C215.821 26.0267 217.552 25.748 219.488 25.748V30.808C217.464 30.808 215.674 31.116 214.12 31.732C212.594 32.348 211.538 33.2867 210.952 34.548V47H204.308V25.88ZM231.963 47.66C229.792 47.66 227.856 47.2053 226.155 46.296C224.483 45.3573 223.163 44.052 222.195 42.38C221.256 40.6787 220.787 38.7133 220.787 36.484C220.787 34.284 221.256 32.3333 222.195 30.632C223.134 28.9307 224.454 27.6107 226.155 26.672C227.856 25.704 229.792 25.22 231.963 25.22C233.547 25.22 234.999 25.44 236.319 25.88C237.639 26.32 238.754 26.9507 239.663 27.772V14.484H246.307V47H239.883V44.712C238.798 45.7387 237.61 46.4867 236.319 46.956C235.058 47.4253 233.606 47.66 231.963 47.66ZM233.679 42.512C235.058 42.512 236.275 42.1453 237.331 41.412C238.416 40.6787 239.194 39.696 239.663 38.464V34.46C239.252 33.2573 238.49 32.2893 237.375 31.556C236.29 30.7933 235.058 30.412 233.679 30.412C231.89 30.412 230.423 30.9693 229.279 32.084C228.164 33.1987 227.607 34.6653 227.607 36.484C227.607 38.3027 228.164 39.7693 229.279 40.884C230.423 41.9693 231.89 42.512 233.679 42.512Z" fill="black"/>
<path fill-rule="evenodd" clip-rule="evenodd" d="M30.6946 0.271057L16.4286 3.46152V17.9772L1.16546 21.8056L1 35.6834L13.5781 44.0093V30.0019L29.03 26.4661V12.0464L43.4359 8.93797L30.6946 0.271057Z" fill="#CDCDCD"/>
<path d="M15.6579 17.5401L28.9834 26.4984" stroke="white" stroke-width="1.81481" stroke-miterlimit="10"/>
<path d="M1.16656 21.8056L17.4635 32.7844" stroke="white" stroke-width="1.81481" stroke-miterlimit="10"/>
<path d="M16.4286 3.46149L30.2748 12.8936" stroke="white" stroke-width="1.81481" stroke-miterlimit="10"/>
<path d="M28.6136 11.3772V26.466" stroke="white" stroke-width="3.13467" stroke-miterlimit="10"/>
<path d="M13.1694 29.7946V44.4323" stroke="white" stroke-width="3.13467" stroke-miterlimit="10"/>
<path d="M43.4359 8.46191L28.0861 11.7733" stroke="white" stroke-width="3.13467" stroke-miterlimit="10"/>
<path d="M12.6675 29.7947L28.3315 26.2103" stroke="white" stroke-width="3.13467" stroke-miterlimit="10"/>
<path fill-rule="evenodd" clip-rule="evenodd" d="M29.03 12.0464L43.4359 8.93793V23.1698L58.0794 19.8196V33.269L43.4359 36.8026V51.0367L29.03 54.701V40.2802L13.5781 44.0092V30.0019L29.03 26.466V12.0464Z" fill="#EA4A7D"/>
</svg>
